<?xml version="1.0" standalone="no"?>
<!DOCTYPE svg PUBLIC "-//W3C//DTD SVG 1.1//EN" "http://www.w3.org/Graphics/SVG/1.1/DTD/svg11.dtd" >
<svg>
<metadata>
Created by FontForge 20120731 at Wed Mar  5 22:11:39 2014
 By World Wide Web Server
Copyright (c) 2007 by Georg. All rights reserved.
</metadata>
<defs>
<font id="ChunkFive-Roman" horiz-adv-x="631" >
  <font-face 
    font-family="ChunkFive"
    font-weight="400"
    font-stretch="normal"
    units-per-em="1000"
    panose-1="0 0 5 0 0 0 0 0 0 0"
    ascent="750"
    descent="-250"
    x-height="500"
    cap-height="699"
    bbox="-50 -251 1101 945"
    underline-thickness="50"
    underline-position="-50"
    unicode-range="U+0020-2212"
  />
<missing-glyph horiz-adv-x="280" 
 />
    <glyph glyph-name=".notdef" horiz-adv-x="280" 
 />
    <glyph glyph-name="A" unicode="A" horiz-adv-x="823" 
d="M808 0h-401v131h95l-21 68h-205l-21 -68h78v-131h-318v131h68l135 439h-41v129h384l177 -568h70v-131zM313 319h131l-66 216z" />
    <glyph glyph-name="AE" unicode="&#xc6;" horiz-adv-x="1065" 
d="M1054 478h-173v89h-160v-138h190v-133h-190v-163h160v93h173v-226h-603v133h63v66h-222l-41 -68h78v-131h-318v131h68l275 439h-41v129h741v-221zM363 319h151v216z" />
    <glyph glyph-name="Aacute" unicode="&#xc1;" horiz-adv-x="823" 
d="M491 830l-69 96l-131 -180l86 -44zM808 0h-401v131h95l-21 68h-205l-21 -68h78v-131h-318v131h68l135 439h-41v129h384l177 -568h70v-131zM313 319h131l-66 216z" />
    <glyph glyph-name="Acircumflex" unicode="&#xc2;" horiz-adv-x="823" 
d="M380 787l117 -72l62 52l-148 112h-70l-161 -129l86 -44zM808 0h-401v131h95l-21 68h-205l-21 -68h78v-131h-318v131h68l135 439h-41v129h384l177 -568h70v-131zM313 319h131l-66 216z" />
    <glyph glyph-name="Adieresis" unicode="&#xc4;" horiz-adv-x="823" 
d="M248 809h94v-84h-94v84zM408 809h94v-84h-94v84zM808 0h-401v131h95l-21 68h-205l-21 -68h78v-131h-318v131h68l135 439h-41v129h384l177 -568h70v-131zM313 319h131l-66 216z" />
    <glyph glyph-name="Agrave" unicode="&#xc0;" horiz-adv-x="823" 
d="M261 830l69 96l131 -180l-86 -44zM808 0h-401v131h95l-21 68h-205l-21 -68h78v-131h-318v131h68l135 439h-41v129h384l177 -568h70v-131zM313 319h131l-66 216z" />
    <glyph glyph-name="Atilde" unicode="&#xc3;" horiz-adv-x="823" 
d="M176 827v-109c34 33 116 52 188 21c62 -27 180 -28 198 10v100c-38 -34 -97 -51 -174 -18c-73 36 -173 32 -212 -4zM808 0h-401v131h95l-21 68h-205l-21 -68h78v-131h-318v131h68l135 439h-41v129h384l177 -568h70v-131zM313 319h131l-66 216z" />
    <glyph glyph-name="B" unicode="B" horiz-adv-x="687" 
d="M25 0v130h58v440h-58v129h373c166 0 245 -62 245 -171c0 -84 -23 -125 -98 -155c72 -20 132 -73 132 -170c0 -141 -79 -203 -272 -203h-380zM290 567v-150h61c53 0 68 29 68 77c0 46 -28 73 -66 73h-63zM290 130h80c42 0 81 32 81 86c0 51 -29 88 -84 88h-77v-174z" />
    <glyph glyph-name="C" unicode="C" horiz-adv-x="686" 
d="M554 253l117 -128c-68 -75 -172 -141 -303 -141c-212 0 -353 136 -353 359c0 230 173 368 304 368c100 0 145 -56 154 -68l23 56h157v-284h-179c-3 65 -35 126 -106 126c-72 0 -119 -89 -119 -198c0 -99 51 -188 146 -188c84 0 150 88 159 98z" />
    <glyph glyph-name="Ccedilla" unicode="&#xc7;" horiz-adv-x="686" 
d="M554 253l117 -128c-68 -75 -172 -141 -303 -141c-212 0 -353 136 -353 359c0 230 173 368 304 368c100 0 145 -56 154 -68l23 56h157v-284h-179c-3 65 -35 126 -106 126c-72 0 -119 -89 -119 -198c0 -99 51 -188 146 -188c84 0 150 88 159 98zM337 -9l-28 -93
c35 16 137 44 119 -7c-14 -36 -78 -52 -127 -25l-8 -53c0 2 161 -48 182 83c11 81 -43 70 -90 64l13 31h-61z" />
    <glyph glyph-name="D" unicode="D" horiz-adv-x="720" 
d="M25 0v133h62v434h-62v132h305c242 0 380 -149 380 -340c0 -228 -138 -359 -384 -359h-301zM292 133h38c106 2 150 101 150 226c0 107 -44 208 -150 208h-38v-434z" />
    <glyph glyph-name="E" unicode="E" horiz-adv-x="653" 
d="M25 699h603v-221h-173v89h-160v-138h190v-133h-190v-163h160v93h173v-226h-603v133h63v434h-63v132z" />
    <glyph glyph-name="Eacute" unicode="&#xc9;" horiz-adv-x="653" 
d="M427 834l-69 96l-131 -180l86 -44zM25 699h603v-221h-173v89h-160v-138h190v-133h-190v-163h160v93h173v-226h-603v133h63v434h-63v132z" />
    <glyph glyph-name="Ecircumflex" unicode="&#xca;" horiz-adv-x="653" 
d="M360 787l117 -72l62 52l-148 112h-70l-161 -129l86 -44zM25 699h603v-221h-173v89h-160v-138h190v-133h-190v-163h160v93h173v-226h-603v133h63v434h-63v132z" />
    <glyph glyph-name="Edieresis" unicode="&#xcb;" horiz-adv-x="623" 
d="M198 809h94v-84h-94v84zM358 809h94v-84h-94v84zM25 699h603v-221h-173v89h-160v-138h190v-133h-190v-163h160v93h173v-226h-603v133h63v434h-63v132z" />
    <glyph glyph-name="Egrave" unicode="&#xc8;" horiz-adv-x="653" 
d="M221 833l69 96l131 -180l-86 -44zM25 699h603v-221h-173v89h-160v-138h190v-133h-190v-163h160v93h173v-226h-603v133h63v434h-63v132z" />
    <glyph glyph-name="F" unicode="F" horiz-adv-x="638" 
d="M25 699h598v-221h-177v89h-151v-174h190v-133h-190v-127h102v-133h-372v133h62v434h-62v132z" />
    <glyph glyph-name="G" unicode="G" horiz-adv-x="776" 
d="M521 0l-31 63c-22 -37 -84 -72 -161 -72c-175 0 -314 136 -314 352c0 218 151 368 307 368c145 0 179 -68 195 -84l21 72h149v-295h-179c-3 81 -55 127 -114 127c-81 0 -137 -88 -137 -188c0 -102 50 -184 137 -184c57 0 81 23 96 49v42h-61v107h332v-107h-40v-250h-200z
" />
    <glyph glyph-name="H" unicode="H" horiz-adv-x="768" 
d="M25 699h324v-132h-62v-151h190v151h-59v132h325v-132h-58v-435h58v-132h-325v132h59v151h-190v-151h62v-132h-324v132h55v435h-55v132z" />
    <glyph glyph-name="I" unicode="I" horiz-adv-x="382" 
d="M25 699h332v-132h-62v-434h62v-133h-332v133h63v434h-63v132z" />
    <glyph glyph-name="Iacute" unicode="&#xcd;" horiz-adv-x="382" 
d="M307 834l-69 96l-131 -180l86 -44zM25 699h332v-132h-62v-434h62v-133h-332v133h63v434h-63v132z" />
    <glyph glyph-name="Icircumflex" unicode="&#xce;" horiz-adv-x="382" 
d="M190 787l117 -72l62 52l-148 112h-70l-161 -129l86 -44zM25 699h332v-132h-62v-434h62v-133h-332v133h63v434h-63v132z" />
    <glyph glyph-name="Idieresis" unicode="&#xcf;" horiz-adv-x="382" 
d="M59 819h94v-84h-94v84zM219 819h94v-84h-94v84zM25 699h332v-132h-62v-434h62v-133h-332v133h63v434h-63v132z" />
    <glyph glyph-name="Igrave" unicode="&#xcc;" horiz-adv-x="382" 
d="M77 834l69 96l131 -180l-86 -44zM25 699h332v-132h-62v-434h62v-133h-332v133h63v434h-63v132z" />
    <glyph glyph-name="J" unicode="J" horiz-adv-x="463" 
d="M20 -193v132c13 -6 27 -9 45 -9c50 0 83 37 83 144v494h-86v131h376v-131h-83v-494c0 -177 -76 -278 -282 -278c-19 0 -37 5 -53 11z" />
    <glyph glyph-name="K" unicode="K" horiz-adv-x="815" 
d="M340 570h-54v-163l186 163h-72v129h333v-129h-58l-145 -125l202 -315h58v-130h-390v130h68l-108 170l-74 -63v-107h54v-130h-315v130h54v440h-54v129h315v-129z" />
    <glyph glyph-name="L" unicode="L" horiz-adv-x="610" 
d="M25 699h316v-132h-53v-434h129v127h168v-260h-560v133h55v434h-55v132z" />
    <glyph glyph-name="M" unicode="M" horiz-adv-x="1008" 
d="M723 523h-4c-8 -45 -22 -111 -29 -134l-105 -389h-209l-112 399c-5 17 -18 74 -21 124h-4v-394h57v-129h-271v129h54v441h-53v129h379l101 -374l96 374h381v-129h-55v-440h55v-130h-316v130h56v334v59z" />
    <glyph glyph-name="N" unicode="N" horiz-adv-x="816" 
d="M791 570h-66v-570h-215l-255 381v-252h77v-129h-307v129h59v441h-58v129h287l245 -367v238h-68v129h301v-129z" />
    <glyph glyph-name="Ntilde" unicode="&#xd1;" horiz-adv-x="816" 
d="M209 827v-109c34 33 116 52 188 21c62 -27 178 -28 210 10v100c-38 -34 -109 -51 -186 -18c-73 36 -173 32 -212 -4zM791 570h-66v-570h-215l-255 381v-252h77v-129h-307v129h59v441h-58v129h287l245 -367v238h-68v129h301v-129z" />
    <glyph glyph-name="O" unicode="O" horiz-adv-x="740" 
d="M373 -18c-209 0 -358 121 -358 371c0 216 144 365 351 365c245 0 359 -147 359 -372c0 -226 -126 -364 -352 -364zM373 139c63 0 102 83 102 207c0 121 -33 218 -110 218c-61 1 -103 -87 -103 -211c0 -131 47 -214 111 -214z" />
    <glyph glyph-name="OE" unicode="&#x152;" horiz-adv-x="1065" 
d="M1101 478h-173v89h-160v-138h190v-133h-190v-163h160v93h173v-226h-603v47c-51 -31 -116 -48 -192 -48c-199 0 -341 116 -341 354c0 206 137 348 334 348c81 0 147 -17 199 -48v46h603v-221zM306 149c60 0 97 79 97 197c0 115 -31 209 -105 209c-58 0 -98 -84 -98 -202
c0 -125 46 -204 106 -204z" />
    <glyph glyph-name="Oacute" unicode="&#xd3;" horiz-adv-x="740" 
d="M480 849l-69 96l-131 -180l86 -44zM373 -18c-209 0 -358 121 -358 371c0 216 144 365 351 365c245 0 359 -147 359 -372c0 -226 -126 -364 -352 -364zM373 139c63 0 102 83 102 207c0 121 -33 218 -110 218c-61 1 -103 -87 -103 -211c0 -131 47 -214 111 -214z" />
    <glyph glyph-name="Ocircumflex" unicode="&#xd4;" horiz-adv-x="740" 
d="M370 797l117 -72l62 52l-148 112h-70l-161 -129l86 -44zM373 -18c-209 0 -358 121 -358 371c0 216 144 365 351 365c245 0 359 -147 359 -372c0 -226 -126 -364 -352 -364zM373 139c63 0 102 83 102 207c0 121 -33 218 -110 218c-61 1 -103 -87 -103 -211
c0 -131 47 -214 111 -214z" />
    <glyph glyph-name="Odieresis" unicode="&#xd6;" horiz-adv-x="740" 
d="M238 829h94v-84h-94v84zM398 829h94v-84h-94v84zM373 -18c-209 0 -358 121 -358 371c0 216 144 365 351 365c245 0 359 -147 359 -372c0 -226 -126 -364 -352 -364zM373 139c63 0 102 83 102 207c0 121 -33 218 -110 218c-61 1 -103 -87 -103 -211
c0 -131 47 -214 111 -214z" />
    <glyph glyph-name="Ograve" unicode="&#xd2;" horiz-adv-x="740" 
d="M252 847l69 96l131 -180l-86 -44zM373 -18c-209 0 -358 121 -358 371c0 216 144 365 351 365c245 0 359 -147 359 -372c0 -226 -126 -364 -352 -364zM373 139c63 0 102 83 102 207c0 121 -33 218 -110 218c-61 1 -103 -87 -103 -211c0 -131 47 -214 111 -214z" />
    <glyph glyph-name="P" unicode="P" horiz-adv-x="640" 
d="M25 699h324c232 0 276 -100 276 -214c0 -132 -120 -198 -263 -198h-76v-155h61v-132h-322v132h56v436h-56v131zM286 569v-174h45c58 0 98 30 98 83c0 59 -35 91 -93 91h-50z" />
    <glyph glyph-name="Q" unicode="Q" horiz-adv-x="755" 
d="M740 106v-51c0 -89 -50 -160 -150 -160c-82 0 -133 52 -155 111c-24 -4 -51 -6 -78 -6c-202 0 -342 118 -342 354c0 204 135 348 336 348c236 0 342 -142 342 -355c0 -105 -28 -190 -83 -250c8 -31 19 -65 44 -65c18 0 20 28 20 45v29h66zM357 347c43 0 80 -16 112 -39
c1 12 2 25 2 39c0 115 -47 209 -121 209c-60 1 -115 -85 -115 -202c0 -20 1 -38 4 -55c23 24 59 48 118 48zM357 150c19 0 37 8 53 22c-7 50 -19 84 -53 84c-33 0 -53 -33 -67 -73c20 -22 43 -33 67 -33z" />
    <glyph glyph-name="R" unicode="R" horiz-adv-x="737" 
d="M25 699h325c232 0 277 -92 277 -206c0 -78 -62 -133 -145 -145c69 -10 131 -70 131 -142c0 -43 6 -68 24 -68c15 0 23 12 23 32v33h67v-55c0 -83 -35 -160 -146 -160c-131 0 -194 69 -194 186c0 91 -11 113 -100 113v-155h61v-132h-323v132h56v436h-56v131zM287 569v-170
h45c58 0 96 28 96 81c0 59 -33 89 -91 89h-50z" />
    <glyph glyph-name="S" unicode="S" horiz-adv-x="710" 
d="M25 0v252h186c0 -84 84 -98 126 -100c35 0 85 8 85 50c0 78 -384 45 -384 300c0 148 140 215 238 215c84 0 169 -27 209 -102l10 84h172v-251h-181c0 74 -58 116 -128 116c-29 0 -69 -18 -69 -53c0 -103 396 -79 396 -314c0 -156 -146 -212 -265 -212
c-101 0 -171 47 -209 92l-11 -77h-175z" />
    <glyph glyph-name="T" unicode="T" horiz-adv-x="701" 
d="M686 699v-260h-147v128h-84v-434h83v-133h-372v133h82v434h-86v-128h-147v260h671z" />
    <glyph glyph-name="U" unicode="U" horiz-adv-x="737" 
d="M15 699h318v-129h-54v-216c0 -161 36 -195 100 -195c61 0 101 24 101 196v212h-54v132h296v-129h-54v-243c0 -237 -99 -344 -287 -344c-202 6 -310 112 -310 339v247h-56v130z" />
    <glyph glyph-name="Uacute" unicode="&#xda;" horiz-adv-x="737" 
d="M491 833l-69 96l-131 -180l86 -44zM15 699h318v-129h-54v-216c0 -161 36 -195 100 -195c61 0 101 24 101 196v212h-54v132h296v-129h-54v-243c0 -237 -99 -344 -287 -344c-202 6 -310 112 -310 339v247h-56v130z" />
    <glyph glyph-name="Ucircumflex" unicode="&#xdb;" horiz-adv-x="737" 
d="M380 787l117 -72l62 52l-148 112h-70l-161 -129l86 -44zM15 699h318v-129h-54v-216c0 -161 36 -195 100 -195c61 0 101 24 101 196v212h-54v132h296v-129h-54v-243c0 -237 -99 -344 -287 -344c-202 6 -310 112 -310 339v247h-56v130z" />
    <glyph glyph-name="Udieresis" unicode="&#xdc;" horiz-adv-x="737" 
d="M239 809h94v-84h-94v84zM425 809h94v-84h-94v84zM15 699h318v-129h-54v-216c0 -161 36 -195 100 -195c61 0 101 24 101 196v212h-54v132h296v-129h-54v-243c0 -237 -99 -344 -287 -344c-202 6 -310 112 -310 339v247h-56v130z" />
    <glyph glyph-name="Ugrave" unicode="&#xd9;" horiz-adv-x="737" 
d="M271 833l69 96l131 -180l-86 -44zM15 699h318v-129h-54v-216c0 -161 36 -195 100 -195c61 0 101 24 101 196v212h-54v132h296v-129h-54v-243c0 -237 -99 -344 -287 -344c-202 6 -310 112 -310 339v247h-56v130z" />
    <glyph glyph-name="V" unicode="V" horiz-adv-x="773" 
d="M420 224h5c2 28 16 77 36 127l91 218h-53v130h284v-130h-49l-240 -569h-184l-265 569h-55v130h368v-130h-54l85 -224c16 -49 29 -93 31 -121z" />
    <glyph glyph-name="W" unicode="W" horiz-adv-x="1015" 
d="M320 226h5c2 28 29 153 49 248l50 225h208l63 -276c14 -65 25 -147 30 -197h5c4 45 21 149 30 191l34 152h-55v130h286v-130h-55l-149 -569h-237l-60 238c-9 34 -20 93 -25 124h-4c-4 -30 -17 -93 -24 -122l-61 -240h-232l-132 569h-56v130h330v-130h-58l26 -146
c11 -48 28 -167 32 -197z" />
    <glyph glyph-name="X" unicode="X" horiz-adv-x="835" 
d="M357 0h-332v129h87l147 191l-181 249h-52v130h396v-130h-58l98 -133l102 133h-88v130h332v-130h-85l-151 -193l180 -246h58v-130h-399v130h57l-76 102l-21 28l-103 -131h89v-129z" />
    <glyph glyph-name="Y" unicode="Y" horiz-adv-x="669" 
d="M369 384h4c4 20 26 62 37 86l55 101h-55v128h269v-128h-54l-185 -325v-116h56v-130h-320v130h57v118l-194 323h-49v128h342v-128h-52l58 -106c6 -19 27 -64 31 -81z" />
    <glyph glyph-name="Z" unicode="Z" horiz-adv-x="714" 
d="M31 436v263h656l2 -133l-366 -434h186v128h177v-260h-661v130l364 436h-188v-130h-170z" />
    <glyph glyph-name="a" unicode="a" horiz-adv-x="600" 
d="M78 342l-42 116c40 24 126 71 218 71c120 0 271 -45 271 -206v-195h60v-128h-214l-24 45c-37 -51 -99 -64 -135 -64c-95 0 -197 51 -197 167c0 113 95 184 208 184c59 0 94 -29 99 -35v35c0 45 -41 56 -95 56c-59 0 -111 -25 -149 -46zM322 144v38c-3 5 -17 29 -59 29
c-40 0 -58 -22 -58 -53c0 -28 23 -47 53 -47s55 18 64 33z" />
    <glyph glyph-name="aacute" unicode="&#xe1;" horiz-adv-x="600" 
d="M391 654l-69 96l-131 -180l86 -44zM78 342l-42 116c40 24 126 71 218 71c120 0 271 -45 271 -206v-195h60v-128h-214l-24 45c-37 -51 -99 -64 -135 -64c-95 0 -197 51 -197 167c0 113 95 184 208 184c59 0 94 -29 99 -35v35c0 45 -41 56 -95 56c-59 0 -111 -25 -149 -46z
M322 144v38c-3 5 -17 29 -59 29c-40 0 -58 -22 -58 -53c0 -28 23 -47 53 -47s55 18 64 33z" />
    <glyph glyph-name="acircumflex" unicode="&#xe2;" horiz-adv-x="600" 
d="M252 607l117 -72l62 52l-148 112h-70l-161 -129l86 -44zM78 342l-42 116c40 24 126 71 218 71c120 0 271 -45 271 -206v-195h60v-128h-214l-24 45c-37 -51 -99 -64 -135 -64c-95 0 -197 51 -197 167c0 113 95 184 208 184c59 0 94 -29 99 -35v35c0 45 -41 56 -95 56
c-59 0 -111 -25 -149 -46zM322 144v38c-3 5 -17 29 -59 29c-40 0 -58 -22 -58 -53c0 -28 23 -47 53 -47s55 18 64 33z" />
    <glyph glyph-name="adieresis" unicode="&#xe4;" horiz-adv-x="600" 
d="M127 669h94v-84h-94v84zM287 669h94v-84h-94v84zM78 342l-42 116c40 24 126 71 218 71c120 0 271 -45 271 -206v-195h60v-128h-214l-24 45c-37 -51 -99 -64 -135 -64c-95 0 -197 51 -197 167c0 113 95 184 208 184c59 0 94 -29 99 -35v35c0 45 -41 56 -95 56
c-59 0 -111 -25 -149 -46zM322 144v38c-3 5 -17 29 -59 29c-40 0 -58 -22 -58 -53c0 -28 23 -47 53 -47s55 18 64 33z" />
    <glyph glyph-name="ae" unicode="&#xe6;" horiz-adv-x="934" 
d="M835 166l84 -97c-74 -64 -154 -87 -258 -87c-79 0 -164 32 -215 104c-41 -105 -199 -105 -234 -105c-95 0 -197 51 -197 167c0 113 95 184 208 184c59 0 94 -29 99 -35v35c0 45 -41 56 -95 56c-59 0 -111 -25 -149 -46l-42 116c40 24 126 71 218 71c79 0 172 -20 226 -79
c48 41 113 64 186 64c119 0 210 -61 239 -145c12 -35 23 -112 2 -169h-315c6 -27 19 -82 103 -82c34 0 86 3 140 48zM595 299h151c-1 38 -10 80 -74 80c-61 0 -75 -55 -77 -80zM322 144v38c-3 5 -17 29 -59 29c-40 0 -58 -22 -58 -53c0 -28 23 -47 53 -47s55 18 64 33z" />
    <glyph glyph-name="agrave" unicode="&#xe0;" horiz-adv-x="600" 
d="M525 128h60v-128h-214l-24 45c-37 -51 -99 -64 -135 -64c-95 0 -197 51 -197 167c0 113 95 184 208 184c59 0 94 -29 99 -35v35c0 45 -41 56 -95 56c-59 0 -111 -25 -149 -46l-42 116c40 24 126 71 218 71h19l-112 125l69 96l131 -180l-81 -42c114 -6 245 -55 245 -205
v-195zM322 144v38c-3 5 -17 29 -59 29c-40 0 -58 -22 -58 -53c0 -28 23 -47 53 -47s55 18 64 33z" />
    <glyph glyph-name="atilde" unicode="&#xe3;" horiz-adv-x="600" 
d="M79 667v-109c34 33 116 52 188 21c62 -27 178 -28 210 10v100c-38 -34 -109 -51 -186 -18c-73 36 -173 32 -212 -4zM78 342l-42 116c40 24 126 71 218 71c120 0 271 -45 271 -206v-195h60v-128h-214l-24 45c-37 -51 -99 -64 -135 -64c-95 0 -197 51 -197 167
c0 113 95 184 208 184c59 0 94 -29 99 -35v35c0 45 -41 56 -95 56c-59 0 -111 -25 -149 -46zM322 144v38c-3 5 -17 29 -59 29c-40 0 -58 -22 -58 -53c0 -28 23 -47 53 -47s55 18 64 33z" />
    <glyph glyph-name="b" unicode="b" horiz-adv-x="656" 
d="M31 0v130h42v489h-42v131h242v-289c22 26 82 47 131 47c152 0 233 -128 230 -262c-3 -154 -90 -257 -231 -257c-76 0 -104 21 -132 45l-15 -34h-225zM414 244c0 60 -28 123 -72 123c-39 0 -75 -49 -71 -128c0 -68 34 -120 72 -120c42 0 71 49 71 125z" />
    <glyph glyph-name="c" unicode="c" horiz-adv-x="531" 
d="M507 274h-147c-2 48 -17 105 -63 105c-59 0 -88 -63 -88 -128s39 -117 103 -118c53 -1 88 21 121 57l88 -102c-47 -51 -137 -102 -245 -102c-147 0 -275 89 -275 267c0 177 118 256 246 256c68 0 108 -37 125 -57l17 48h118v-226z" />
    <glyph glyph-name="ccedilla" unicode="&#xe7;" horiz-adv-x="531" 
d="M433 190l88 -102c-45 -49 -131 -98 -233 -102l-8 -21c41 6 87 15 78 -55c-18 -113 -157 -69 -158 -71l8 45c42 -22 98 -9 109 21c15 45 -72 20 -103 7l23 76c-130 15 -236 103 -236 265c0 177 118 256 246 256c68 0 108 -37 125 -57l17 48h118v-226h-147
c-2 48 -17 105 -63 105c-59 0 -88 -63 -88 -128s39 -117 103 -118c53 -1 88 21 121 57z" />
    <glyph glyph-name="d" unicode="d" horiz-adv-x="634" 
d="M368 620h-46v130h249v-620h48v-130h-234l-17 37c-13 -12 -57 -46 -126 -46c-141 0 -232 125 -232 264c0 156 109 255 232 255c71 0 107 -26 126 -38v148zM225 255c0 -60 28 -123 72 -123c39 0 75 49 71 128c0 68 -34 120 -72 120c-42 0 -71 -49 -71 -125z" />
    <glyph glyph-name="e" unicode="e" horiz-adv-x="542" 
d="M443 166l84 -97c-74 -64 -154 -87 -258 -87c-124 0 -264 79 -264 271c0 164 118 261 269 261c119 0 210 -61 239 -145c12 -35 23 -112 2 -169h-315c6 -27 19 -82 103 -82c34 0 86 3 140 48zM203 299h151c-1 38 -10 80 -74 80c-61 0 -75 -55 -77 -80z" />
    <glyph glyph-name="eacute" unicode="&#xe9;" horiz-adv-x="542" 
d="M387 654l-69 96l-131 -180l86 -44zM443 166l84 -97c-74 -64 -154 -87 -258 -87c-124 0 -264 79 -264 271c0 164 118 261 269 261c119 0 210 -61 239 -145c12 -35 23 -112 2 -169h-315c6 -27 19 -82 103 -82c34 0 86 3 140 48zM203 299h151c-1 38 -10 80 -74 80
c-61 0 -75 -55 -77 -80z" />
    <glyph glyph-name="ecircumflex" unicode="&#xea;" horiz-adv-x="542" 
d="M277 607l117 -72l62 52l-148 112h-70l-161 -129l86 -44zM443 166l84 -97c-74 -64 -154 -87 -258 -87c-124 0 -264 79 -264 271c0 164 118 261 269 261c119 0 210 -61 239 -145c12 -35 23 -112 2 -169h-315c6 -27 19 -82 103 -82c34 0 86 3 140 48zM203 299h151
c-1 38 -10 80 -74 80c-61 0 -75 -55 -77 -80z" />
    <glyph glyph-name="edieresis" unicode="&#xeb;" horiz-adv-x="542" 
d="M146 669h94v-84h-94v84zM306 669h94v-84h-94v84zM443 166l84 -97c-74 -64 -154 -87 -258 -87c-124 0 -264 79 -264 271c0 164 118 261 269 261c119 0 210 -61 239 -145c12 -35 23 -112 2 -169h-315c6 -27 19 -82 103 -82c34 0 86 3 140 48zM203 299h151
c-1 38 -10 80 -74 80c-61 0 -75 -55 -77 -80z" />
    <glyph glyph-name="egrave" unicode="&#xe8;" horiz-adv-x="542" 
d="M161 654l69 96l131 -180l-86 -44zM443 166l84 -97c-74 -64 -154 -87 -258 -87c-124 0 -264 79 -264 271c0 164 118 261 269 261c119 0 210 -61 239 -145c12 -35 23 -112 2 -169h-315c6 -27 19 -82 103 -82c34 0 86 3 140 48zM203 299h151c-1 38 -10 80 -74 80
c-61 0 -75 -55 -77 -80z" />
    <glyph glyph-name="f" unicode="f" horiz-adv-x="386" 
d="M411 743l-60 -115c-11 5 -28 10 -55 10c-22 0 -32 -17 -32 -53v-85h91v-130h-91v-239h60v-131h-298v131h40v239h-41v130h41v85c0 57 18 183 198 183c52 0 121 -12 147 -25z" />
    <glyph glyph-name="g" unicode="g" horiz-adv-x="640" 
d="M24 -117l53 111c23 -20 98 -64 174 -64c90 0 116 52 116 94v34c-14 -18 -53 -55 -117 -55c-172 0 -240 124 -240 250c0 155 86 257 251 257c44 0 86 -21 106 -41l20 31h238v-131h-60v-299c0 -166 -102 -274 -312 -275c-110 1 -191 53 -229 88zM223 255
c0 -60 28 -123 72 -123c39 0 75 49 71 128c0 68 -34 120 -72 120c-42 0 -71 -49 -71 -125z" />
    <glyph glyph-name="h" unicode="h" horiz-adv-x="661" 
d="M339 0h-314v131h42v489h-42v130h242v-312c11 18 84 80 157 80c155 0 175 -115 175 -220v-167h47v-131h-257v272c0 34 0 93 -59 93c-51 0 -63 -50 -63 -93v-141h72v-131z" />
    <glyph glyph-name="i" unicode="i" horiz-adv-x="330" 
d="M53 646c0 46 38 102 108 102c69 0 110 -56 110 -102c0 -55 -39 -101 -110 -101c-63 0 -108 53 -108 101zM305 0h-280v131h42v239h-42v130h232v-369h48v-131z" />
    <glyph glyph-name="iacute" unicode="&#xed;" horiz-adv-x="330" 
d="M267 654l-69 96l-131 -180l86 -44zM305 0h-280v131h42v239h-42v130h232v-369h48v-131z" />
    <glyph glyph-name="icircumflex" unicode="&#xee;" horiz-adv-x="330" 
d="M150 607l117 -72l62 52l-148 112h-70l-161 -129l86 -44zM305 0h-280v131h42v239h-42v130h232v-369h48v-131z" />
    <glyph glyph-name="idieresis" unicode="&#xef;" horiz-adv-x="330" 
d="M26 669h94v-84h-94v84zM163 669h94v-84h-94v84zM305 0h-280v131h42v239h-42v130h232v-369h48v-131z" />
    <glyph glyph-name="igrave" unicode="&#xec;" horiz-adv-x="330" 
d="M51 654l69 96l131 -180l-86 -44zM305 0h-280v131h42v239h-42v130h232v-369h48v-131z" />
    <glyph glyph-name="j" unicode="j" horiz-adv-x="360" 
d="M114 646c0 46 38 102 108 102c69 0 110 -56 110 -102c0 -55 -39 -101 -110 -101c-63 0 -108 53 -108 101zM128 370h-42v130h232v-430c0 -124 -38 -279 -304 -279v134c116 0 114 97 114 145v300z" />
    <glyph glyph-name="k" unicode="k" horiz-adv-x="654" 
d="M38 0v130h41v489h-41v131h231v-452l116 69h-72v132h280v-132h-77l-68 -43l135 -193h50v-131h-296v131h42l-76 108l-35 -24v-84h37v-131h-267z" />
    <glyph glyph-name="l" unicode="l" horiz-adv-x="332" 
d="M317 0h-292v131h43v490h-42v129h232v-619h59v-131z" />
    <glyph glyph-name="m" unicode="m" horiz-adv-x="908" 
d="M322 0h-297v131h42v236h-42v132h189l22 -59c16 19 62 73 125 73c101 0 133 -48 149 -72c31 35 78 72 147 72c162 0 187 -118 187 -240v-138h49v-135h-254v245c0 48 9 124 -38 124c-43 0 -53 -30 -53 -73v-162h60v-134h-259v255c0 81 -2 114 -42 114
c-32 0 -45 -19 -45 -60v-178h60v-131z" />
    <glyph glyph-name="n" unicode="n" horiz-adv-x="647" 
d="M333 0h-308v131h42v239h-42v130h213l23 -62c34 47 80 80 143 80c155 0 181 -115 181 -220v-167h47v-131h-252v273c0 34 3 93 -56 93c-51 0 -63 -50 -63 -93v-142h72v-131z" />
    <glyph glyph-name="ntilde" unicode="&#xf1;" horiz-adv-x="647" 
d="M119 667v-109c34 33 116 52 188 21c62 -27 178 -28 210 10v100c-38 -34 -109 -51 -186 -18c-73 36 -173 32 -212 -4zM333 0h-308v131h42v239h-42v130h213l23 -62c34 47 80 80 143 80c155 0 181 -115 181 -220v-167h47v-131h-252v273c0 34 3 93 -56 93
c-51 0 -63 -50 -63 -93v-142h72v-131z" />
    <glyph glyph-name="o" unicode="o" horiz-adv-x="574" 
d="M290 -13c-143 0 -281 88 -279 265c1 167 136 260 274 260c158 -2 275 -97 278 -264c2 -166 -121 -261 -273 -261zM290 115c43 0 68 58 68 133s-26 133 -73 134c-39 0 -69 -58 -69 -131c0 -82 32 -136 74 -136z" />
    <glyph glyph-name="oacute" unicode="&#xf3;" horiz-adv-x="574" 
d="M400 642l-69 96l-131 -180l86 -44zM290 -13c-143 0 -281 88 -279 265c1 167 136 260 274 260c158 -2 275 -97 278 -264c2 -166 -121 -261 -273 -261zM290 115c43 0 68 58 68 133s-26 133 -73 134c-39 0 -69 -58 -69 -131c0 -82 32 -136 74 -136z" />
    <glyph glyph-name="ocircumflex" unicode="&#xf4;" horiz-adv-x="574" 
d="M285 607l117 -72l62 52l-148 112h-70l-161 -129l86 -44zM290 -13c-143 0 -281 88 -279 265c1 167 136 260 274 260c158 -2 275 -97 278 -264c2 -166 -121 -261 -273 -261zM290 115c43 0 68 58 68 133s-26 133 -73 134c-39 0 -69 -58 -69 -131c0 -82 32 -136 74 -136z" />
    <glyph glyph-name="odieresis" unicode="&#xf6;" horiz-adv-x="574" 
d="M158 669h94v-84h-94v84zM318 669h94v-84h-94v84zM290 -13c-143 0 -281 88 -279 265c1 167 136 260 274 260c158 -2 275 -97 278 -264c2 -166 -121 -261 -273 -261zM290 115c43 0 68 58 68 133s-26 133 -73 134c-39 0 -69 -58 -69 -131c0 -82 32 -136 74 -136z" />
    <glyph glyph-name="oe" unicode="&#x153;" horiz-adv-x="936" 
d="M837 166l84 -97c-74 -64 -154 -87 -258 -87c-64 0 -131 21 -182 67c-49 -41 -115 -62 -187 -62c-143 0 -281 88 -279 265c1 167 136 260 274 260c76 -1 142 -23 191 -64c48 43 114 66 188 66c119 0 210 -61 239 -145c12 -35 23 -112 2 -169h-315c6 -27 19 -82 103 -82
c34 0 86 3 140 48zM294 115c43 0 68 58 68 133s-26 133 -73 134c-39 0 -69 -58 -69 -131c0 -82 32 -136 74 -136zM597 299h151c-1 38 -10 80 -74 80c-61 0 -75 -55 -77 -80z" />
    <glyph glyph-name="ograve" unicode="&#xf2;" horiz-adv-x="574" 
d="M170 642l69 96l131 -180l-86 -44zM290 -13c-143 0 -281 88 -279 265c1 167 136 260 274 260c158 -2 275 -97 278 -264c2 -166 -121 -261 -273 -261zM290 115c43 0 68 58 68 133s-26 133 -73 134c-39 0 -69 -58 -69 -131c0 -82 32 -136 74 -136z" />
    <glyph glyph-name="p" unicode="p" horiz-adv-x="638" 
d="M25 -73h42v440h-42v133h229l17 -35c19 14 61 43 121 43c156 0 236 -120 236 -262c0 -159 -99 -257 -228 -257c-83 0 -123 33 -130 39v-101h54v-131h-299v131zM413 244c0 60 -28 123 -72 123c-39 0 -75 -49 -71 -128c0 -68 34 -120 72 -120c42 0 71 49 71 125z" />
    <glyph glyph-name="q" unicode="q" horiz-adv-x="660" 
d="M318 -99h65v132c-23 -19 -69 -42 -128 -42c-128 0 -230 101 -230 262c0 173 106 257 239 257c65 0 109 -27 119 -40l19 30h233v-130h-49v-466h49v-134h-317v131zM383 257c0 60 -28 123 -72 123c-39 0 -75 -49 -71 -128c0 -68 34 -120 72 -120c42 0 71 49 71 125z" />
    <glyph glyph-name="r" unicode="r" horiz-adv-x="414" 
d="M308 0h-283v131h44v239h-43v130h188l30 -64c26 48 52 89 155 89v-180c-90 0 -141 -23 -141 -111v-103h50v-131z" />
    <glyph glyph-name="s" unicode="s" horiz-adv-x="508" 
d="M15 0v180h134c0 -53 76 -67 106 -67c20 0 44 6 44 34c0 30 -75 35 -147 60c-68 24 -133 66 -133 160c0 102 105 145 176 145c68 0 128 -35 149 -78l8 66h123v-180h-130c0 42 -52 76 -102 76c-21 0 -39 -11 -39 -36c0 -28 59 -40 123 -62c76 -26 161 -55 161 -160
c0 -94 -89 -150 -186 -150c-72 0 -129 35 -153 73l-9 -61h-125z" />
    <glyph glyph-name="t" unicode="t" horiz-adv-x="363" 
d="M15 500h54v92l184 59v-151h95v-130h-95v-178c0 -34 -7 -80 32 -80c13 0 44 9 63 17v-128c-30 -12 -98 -19 -121 -19c-150 0 -155 82 -158 210v178h-54v130z" />
    <glyph glyph-name="u" unicode="u" 
d="M15 500h242v-241c0 -86 13 -126 54 -126c35 0 63 31 63 76v159h-66v132h259v-367h49v-133h-189l-27 63c-22 -25 -57 -77 -142 -77c-151 0 -201 78 -201 244v138h-42v132z" />
    <glyph glyph-name="uacute" unicode="&#xfa;" 
d="M401 654l-69 96l-131 -180l86 -44zM15 500h242v-241c0 -86 13 -126 54 -126c35 0 63 31 63 76v159h-66v132h259v-367h49v-133h-189l-27 63c-22 -25 -57 -77 -142 -77c-151 0 -201 78 -201 244v138h-42v132z" />
    <glyph glyph-name="ucircumflex" unicode="&#xfb;" 
d="M287 607l117 -72l62 52l-148 112h-70l-161 -129l86 -44zM15 500h242v-241c0 -86 13 -126 54 -126c35 0 63 31 63 76v159h-66v132h259v-367h49v-133h-189l-27 63c-22 -25 -57 -77 -142 -77c-151 0 -201 78 -201 244v138h-42v132z" />
    <glyph glyph-name="udieresis" unicode="&#xfc;" 
d="M146 669h94v-84h-94v84zM306 669h94v-84h-94v84zM15 500h242v-241c0 -86 13 -126 54 -126c35 0 63 31 63 76v159h-66v132h259v-367h49v-133h-189l-27 63c-22 -25 -57 -77 -142 -77c-151 0 -201 78 -201 244v138h-42v132z" />
    <glyph glyph-name="ugrave" unicode="&#xf9;" 
d="M161 654l69 96l131 -180l-86 -44zM15 500h242v-241c0 -86 13 -126 54 -126c35 0 63 31 63 76v159h-66v132h259v-367h49v-133h-189l-27 63c-22 -25 -57 -77 -142 -77c-151 0 -201 78 -201 244v138h-42v132z" />
    <glyph glyph-name="v" unicode="v" horiz-adv-x="613" 
d="M326 162h4c1 21 13 71 30 110l48 101h-53v127h258v-127h-52l-173 -373h-155l-186 373h-47v127h304v-127h-50l46 -106c13 -38 24 -84 26 -105z" />
    <glyph glyph-name="w" unicode="w" horiz-adv-x="872" 
d="M282 153h2c3 41 11 136 41 235l32 112h185l38 -130c24 -77 39 -182 43 -217h2c3 32 12 105 27 158l17 59h-41v130h244v-130h-41l-117 -370h-211l-69 226l-72 -226h-206l-113 370h-43v130h269v-130h-34l22 -73c14 -48 23 -115 25 -144z" />
    <glyph glyph-name="x" unicode="x" horiz-adv-x="649" 
d="M375 500h255v-125h-66l-106 -107l126 -144h47v-124h-319v124h47l-76 81l-72 -81h65v-124h-256v124h67l102 115l-124 136h-45v125h324v-125h-47l70 -76l75 76h-67v125z" />
    <glyph glyph-name="y" unicode="y" horiz-adv-x="580" 
d="M382 373h-46v127h254v-124h-48l-190 -462c-29 -62 -70 -142 -215 -141c-52 3 -91 24 -121 50l75 118c17 -15 37 -30 58 -34c31 -6 54 23 64 53l14 42l-195 370h-41v128h308v-127h-47l65 -156z" />
    <glyph glyph-name="z" unicode="z" horiz-adv-x="553" 
d="M25 300v200h495v-129l-238 -240h105v68h141v-199h-503v131l241 240h-111v-71h-130z" />
    <glyph glyph-name="zero" unicode="0" horiz-adv-x="599" 
d="M302 -12c-167 0 -287 119 -287 365c0 212 116 359 282 359c196 0 287 -145 287 -366c0 -222 -101 -358 -282 -358zM302 143c46 0 81 81 81 203c0 119 -38 205 -87 205c-37 1 -83 -76 -83 -198c0 -129 49 -210 89 -210z" />
    <glyph glyph-name="one" unicode="1" horiz-adv-x="496" 
d="M71 457l-46 111c57 28 102 44 175 131h178v-566h93v-133h-400v133h100v371z" />
    <glyph glyph-name="two" unicode="2" horiz-adv-x="590" 
d="M141 472l-108 114c70 81 160 124 260 124c133 0 238 -84 238 -219c0 -115 -54 -155 -160 -224c-48 -31 -127 -94 -150 -134h176v80h168v-213h-540v145c55 90 82 119 146 170c71 63 177 105 177 167c0 51 -38 66 -84 66c-54 0 -93 -44 -123 -76z" />
    <glyph glyph-name="three" unicode="3" horiz-adv-x="540" 
d="M134 498l-97 117c36 39 123 95 214 95c163 0 255 -84 255 -212c0 -68 -48 -107 -74 -127c32 -23 93 -74 93 -164c0 -148 -142 -220 -277 -220c-95 0 -194 55 -233 113l102 106c37 -37 75 -65 132 -65c56 0 90 27 90 77c0 54 -33 73 -83 73h-75v119h73c48 0 85 24 85 69
c0 54 -46 79 -88 79c-38 0 -82 -23 -117 -60z" />
    <glyph glyph-name="four" unicode="4" horiz-adv-x="584" 
d="M10 340l288 359h207v-394h53v-108h-53v-65h54v-132h-324v132h63v65h-288v143zM298 305v185l-148 -185h148z" />
    <glyph glyph-name="five" unicode="5" horiz-adv-x="577" 
d="M238 550l-17 -97c20 13 59 24 108 24c117 0 233 -82 233 -237c0 -168 -154 -253 -299 -253c-101 0 -207 59 -248 121l109 113c39 -40 82 -74 140 -74c67 0 110 42 110 100c0 53 -45 97 -102 97c-46 0 -73 -24 -94 -46l-128 57l61 344h396v-149h-269z" />
    <glyph glyph-name="six" unicode="6" horiz-adv-x="581" 
d="M546 631l-68 -130c-34 20 -85 51 -146 51c-74 -2 -121 -62 -131 -136c26 26 78 49 131 51c128 5 234 -87 234 -223c0 -134 -96 -248 -259 -253c-164 -5 -285 113 -291 313c-3 133 31 398 294 406c67 2 177 -29 236 -79zM306 323c-47 -2 -87 -37 -103 -57
c0 -50 29 -118 93 -118c51 0 92 38 91 86c-1 39 -21 90 -81 89z" />
    <glyph glyph-name="seven" unicode="7" horiz-adv-x="566" 
d="M15 699h541v-133l-269 -566h-216l268 566h-164v-65h-160v198z" />
    <glyph glyph-name="eight" unicode="8" horiz-adv-x="559" 
d="M15 205c0 65 42 143 108 176c-50 30 -75 85 -75 133c0 111 88 197 238 197c155 0 239 -86 239 -197c0 -66 -40 -115 -84 -136c68 -33 103 -105 103 -173c0 -123 -103 -218 -264 -218c-166 0 -265 95 -265 218zM359 522c0 36 -35 63 -75 63c-39 0 -72 -30 -72 -63
c0 -55 66 -65 99 -66c25 12 48 36 48 66zM188 211c0 -47 43 -82 93 -82c49 0 91 27 92 82c0 70 -81 87 -127 89c-30 -17 -58 -52 -58 -89z" />
    <glyph glyph-name="nine" unicode="9" horiz-adv-x="587" 
d="M35 70l68 130c34 -20 85 -51 146 -51c74 2 123 48 122 136c-26 -26 -69 -49 -122 -51c-128 -5 -234 87 -234 223c0 134 96 248 259 253c164 5 291 -113 297 -313c4 -152 -37 -398 -300 -406c-67 -2 -177 29 -236 79zM275 378c47 2 78 37 94 57c0 50 -20 118 -84 118
c-51 0 -92 -38 -91 -86c1 -39 21 -90 81 -89z" />
    <glyph glyph-name="twosuperior" unicode="&#xb2;" horiz-adv-x="400" 
d="M123 567l-58 61c38 42 86 66 138 66c72 0 127 -46 127 -117c0 -62 -28 -82 -84 -119c-26 -17 -69 -50 -81 -71h94v43h89v-114h-286v78c29 47 43 63 77 89c38 32 94 56 94 89c0 28 -18 35 -46 35s-48 -23 -64 -40z" />
    <glyph glyph-name="threesuperior" unicode="&#xb3;" horiz-adv-x="400" 
d="M128 588l-52 63c19 20 66 49 114 49c86 0 135 -44 135 -112c0 -35 -25 -56 -39 -67c17 -13 49 -40 49 -87c0 -79 -74 -117 -145 -117c-52 0 -105 29 -125 60l53 56c21 -18 40 -34 72 -34c30 0 47 14 47 40c0 28 -17 40 -47 40h-38v62h38c28 0 47 14 47 37
c0 28 -25 42 -47 42c-20 0 -42 -11 -62 -32z" />
    <glyph glyph-name="asterisk" unicode="*" horiz-adv-x="600" 
d="M249 696l-19 -30l22 -116l-89 46l-44 2l-32 -102l41 -19l94 -21l-86 -89v-28l83 -63l27 25l53 96l50 -90l31 -32l84 64l-9 36l-77 80l98 20l37 21l-32 102l-42 -2l-90 -47l22 116l-19 31h-103z" />
    <glyph glyph-name="backslash" unicode="\" horiz-adv-x="402" 
d="M0 731h162l290 -886h-162z" />
    <glyph glyph-name="bullet" unicode="&#x2022;" horiz-adv-x="348" 
d="M60 322c0 51 40 114 113 114s115 -63 115 -114c0 -60 -40 -108 -115 -108c-66 0 -113 55 -113 108z" />
    <glyph glyph-name="colon" unicode=":" horiz-adv-x="254" 
d="M15 402c0 50 39 112 111 112s113 -62 113 -112c0 -59 -42 -106 -113 -106c-62 0 -111 54 -111 106zM15 98c0 50 39 112 111 112s113 -62 113 -112c0 -59 -45 -106 -113 -106c-65 0 -111 54 -111 106z" />
    <glyph glyph-name="comma" unicode="," horiz-adv-x="272" 
d="M109 -194l-115 65c71 89 105 174 95 325l182 -48c4 -129 -60 -251 -162 -342z" />
    <glyph glyph-name="ellipsis" unicode="&#x2026;" horiz-adv-x="1000" 
d="M116 104c0 51 40 114 113 114s115 -63 115 -114c0 -60 -40 -108 -115 -108c-66 0 -113 55 -113 108zM386 104c0 51 40 114 113 114s115 -63 115 -114c0 -60 -40 -108 -115 -108c-66 0 -113 55 -113 108zM656 104c0 51 40 114 113 114s115 -63 115 -114
c0 -60 -40 -108 -115 -108c-66 0 -113 55 -113 108z" />
    <glyph glyph-name="exclam" unicode="!" horiz-adv-x="308" 
d="M32 509v190h239v-190l-53 -252h-132zM28 102c0 50 42 106 114 106c71 0 119 -49 119 -106c0 -56 -46 -103 -119 -103c-65 0 -114 51 -114 103z" />
    <glyph glyph-name="numbersign" unicode="#" horiz-adv-x="650" 
d="M597 322h-93l-12 -67h93l-23 -133h-93l-18 -102h-133l18 102h-67l-18 -102h-133l18 102h-113l23 133h113l12 67h-113l23 133h113l18 104h133l-18 -104h67l18 104h133l-18 -104h93zM359 255l12 67h-67l-12 -67h67z" />
    <glyph glyph-name="period" unicode="." horiz-adv-x="258" 
d="M15 104c0 51 40 114 113 114s115 -63 115 -114c0 -60 -40 -108 -115 -108c-66 0 -113 55 -113 108z" />
    <glyph glyph-name="question" unicode="?" horiz-adv-x="520" 
d="M110 477l-108 109c70 81 160 129 260 129c133 0 238 -70 238 -205c0 -130 -159 -162 -159 -222v-55h-186v80c0 92 159 144 159 199c0 38 -39 47 -74 47c-43 0 -96 -42 -130 -82zM129 102c0 50 42 106 114 106c71 0 119 -49 119 -106c0 -56 -46 -103 -119 -103
c-65 0 -114 51 -114 103z" />
    <glyph glyph-name="questiondown" unicode="&#xbf;" horiz-adv-x="520" 
d="M373 362c0 -50 -42 -106 -114 -106c-71 0 -119 49 -119 106c0 56 46 103 119 103c65 0 114 -51 114 -103zM392 -13l108 -109c-70 -81 -160 -129 -260 -129c-133 0 -238 70 -238 205c0 130 159 162 159 222v55h186v-80c0 -92 -159 -144 -159 -199c0 -38 39 -47 74 -47
c43 0 96 42 130 82z" />
    <glyph glyph-name="quotedbl" unicode="&#x22;" horiz-adv-x="530" 
d="M254 701l-36 -299h-125l-37 299h198zM474 701l-36 -299h-125l-37 299h198z" />
    <glyph glyph-name="quotesingle" unicode="'" horiz-adv-x="273" 
d="M234 701l-36 -299h-125l-37 299h198z" />
    <glyph glyph-name="semicolon" unicode=";" horiz-adv-x="302" 
d="M59 385c0 51 40 114 113 114s115 -63 115 -114c0 -60 -43 -108 -115 -108c-63 0 -113 55 -113 108zM5 -129l115 -65c102 91 166 213 162 342l-182 48c10 -151 -24 -236 -95 -325z" />
    <glyph glyph-name="slash" unicode="/" horiz-adv-x="402" 
d="M402 731h-162l-290 -886h162z" />
    <glyph glyph-name="underscore" unicode="_" 
d="M42 -44h539v-54h-539v54z" />
    <glyph glyph-name="braceleft" unicode="{" horiz-adv-x="450" 
d="M260 815l103 -106c-197 -45 -68 -128 -99 -262c-9 -40 -55 -135 -55 -135s34 -86 41 -123c26 -147 -94 -235 113 -291l-103 -107c-248 80 -138 223 -172 396c-8 40 -63 125 -63 125s67 98 78 143c43 170 -68 303 157 360z" />
    <glyph glyph-name="braceright" unicode="}" horiz-adv-x="450" 
d="M218 815l-103 -106c197 -45 68 -128 99 -262c9 -40 55 -135 55 -135s-34 -86 -41 -123c-26 -147 94 -235 -113 -291l103 -107c248 80 138 223 172 396c8 40 63 125 63 125s-67 98 -78 143c-43 170 68 303 -157 360z" />
    <glyph glyph-name="bracketleft" unicode="[" horiz-adv-x="388" 
d="M387 -210h-249v1024h250v-131h-60v-762h59v-131z" />
    <glyph glyph-name="bracketright" unicode="]" horiz-adv-x="388" 
d="M1 -210h249v1024h-250v-131h60v-762h-59v-131z" />
    <glyph glyph-name="parenleft" unicode="(" horiz-adv-x="388" 
d="M260 815l103 -106c-48 -58 -154 -181 -154 -397c0 -223 95 -344 154 -414l-103 -107c-108 98 -235 293 -235 521c0 236 152 431 235 503z" />
    <glyph glyph-name="parenright" unicode=")" horiz-adv-x="388" 
d="M25 708l103 106c83 -72 235 -267 235 -503c0 -228 -127 -423 -235 -521l-103 107c59 70 154 191 154 414c0 216 -106 339 -154 397z" />
    <glyph glyph-name="emdash" unicode="&#x2014;" 
d="M42 305h539v-133h-539v133z" />
    <glyph glyph-name="endash" unicode="&#x2013;" horiz-adv-x="447" 
d="M32 305h377v-133h-377v133z" />
    <glyph glyph-name="hyphen" unicode="-" horiz-adv-x="386" 
d="M47 305h290v-133h-290v133z" />
    <glyph glyph-name="softhyphen" unicode="&#xad;" horiz-adv-x="386" 
d="M47 305h290v-133h-290v133z" />
    <glyph glyph-name="guillemotleft" unicode="&#xab;" horiz-adv-x="700" 
d="M324 600l-249 -250v-140l272 -250l38 104l-197 211l197 213zM564 600l-249 -250v-140l272 -250l38 104l-197 211l197 213z" />
    <glyph glyph-name="guillemotright" unicode="&#xbb;" horiz-adv-x="700" 
d="M136 600l249 -250v-140l-272 -250l-38 104l197 211l-197 213zM376 600l249 -250v-140l-272 -250l-38 104l197 211l-197 213z" />
    <glyph glyph-name="quotedblleft" unicode="&#x201c;" horiz-adv-x="519" 
d="M164 756l115 -65c-71 -89 -105 -174 -95 -325l-182 48c-4 129 60 251 162 342zM404 756l115 -65c-71 -89 -105 -174 -95 -325l-182 48c-4 129 60 251 162 342z" />
    <glyph glyph-name="quotedblright" unicode="&#x201d;" horiz-adv-x="519" 
d="M117 366l-115 65c71 89 105 174 95 325l182 -48c4 -129 -60 -251 -162 -342zM357 366l-115 65c71 89 105 174 95 325l182 -48c4 -129 -60 -251 -162 -342z" />
    <glyph glyph-name="quoteleft" unicode="&#x2018;" horiz-adv-x="307" 
d="M177 756l115 -65c-71 -89 -105 -174 -95 -325l-182 48c-4 129 60 251 162 342z" />
    <glyph glyph-name="quoteright" unicode="&#x2019;" horiz-adv-x="307" 
d="M130 366l-115 65c71 89 105 174 95 325l182 -48c4 -129 -60 -251 -162 -342z" />
    <glyph glyph-name="space" unicode=" " horiz-adv-x="250" 
 />
    <glyph glyph-name="Euro" unicode="&#x20ac;" horiz-adv-x="800" 
d="M580 208h201v-208h-170l-31 63c-22 -37 -84 -72 -161 -72c-151 0 -275 101 -306 268h-112l24 69h80v15v16h-69l24 69h53c33 171 164 283 299 283c145 0 179 -68 195 -84l21 72h149v-295h-179c-3 81 -55 127 -114 127c-57 0 -101 -43 -123 -103h187l-24 -69h-177v-16v-15
h166l-24 -69h-129c20 -59 63 -100 124 -100c57 0 81 23 96 49z" />
    <glyph glyph-name="dollar" unicode="$" horiz-adv-x="710" 
d="M667 448h-181c0 74 -58 116 -128 116c-29 0 -69 -18 -69 -53c0 -103 396 -79 396 -314c0 -156 -146 -212 -265 -212c-12 0 -24 1 -35 2v-64h-64v79c-49 17 -86 47 -110 75l-11 -77h-175v252h186c0 -84 84 -98 126 -100c35 0 85 8 85 50c0 78 -384 45 -384 300
c0 148 140 215 238 215c15 0 30 -1 45 -3v74h64v-89c42 -16 78 -42 100 -84l10 84h172v-251z" />
    <glyph glyph-name="sterling" unicode="&#xa3;" horiz-adv-x="710" 
d="M683 699v-162c-80 69 -274 138 -339 44c-32 -45 -16 -97 8 -154h224v-50h-202c32 -75 60 -158 6 -244h129v127h168v-260h-560v133h55c62 100 18 167 -19 244h-143v50h122c-18 49 -25 106 2 178c74 200 361 234 549 94z" />
    <glyph glyph-name="yen" unicode="&#xa5;" horiz-adv-x="669" 
d="M475 307l-35 -61v-19h244v-50h-244v-47h56v-130h-320v130h57v47h-245v50h245v21l-35 59h-210v50h180l-129 214h-49v128h342v-128h-52l58 -106c6 -19 27 -64 31 -81h4c4 20 26 62 37 86l55 101h-55v128h269v-128h-54l-122 -214h181v-50h-209z" />
    <glyph glyph-name="asciitilde" unicode="~" horiz-adv-x="400" 
d="M0 307v-109c34 33 116 52 188 21c62 -27 173 -34 210 10v109c-28 -34 -109 -60 -186 -27c-73 36 -173 32 -212 -4z" />
    <glyph glyph-name="bar" unicode="|" horiz-adv-x="400" 
d="M153 -101v919h93v-919h-93z" />
    <glyph glyph-name="divide" unicode="&#xf7;" 
d="M205 446c0 50 39 112 111 112s113 -62 113 -112c0 -59 -42 -106 -113 -106c-62 0 -111 54 -111 106zM42 306h539v-54h-539v54zM205 108c0 50 39 112 111 112s113 -62 113 -112c0 -59 -45 -106 -113 -106c-65 0 -111 54 -111 106z" />
    <glyph glyph-name="equal" unicode="=" horiz-adv-x="502" 
d="M44 406h412v-133h-412v133zM44 185h412v-133h-412v133z" />
    <glyph glyph-name="greater" unicode="&#x3e;" horiz-adv-x="520" 
d="M131 500l299 -150v-140l-322 -150l-38 104l247 111l-247 113z" />
    <glyph glyph-name="less" unicode="&#x3c;" horiz-adv-x="520" 
d="M369 500l-299 -150v-140l322 -150l38 104l-247 111l247 113z" />
    <glyph glyph-name="minus" unicode="&#x2212;" 
d="M42 305h539v-133h-539v133z" />
    <glyph glyph-name="multiply" unicode="&#xd7;" 
d="M74 95l144 144l-144 143l94 94l144 -143l143 143l94 -94l-143 -143l143 -144l-94 -94l-143 144l-144 -144z" />
    <glyph glyph-name="percent" unicode="%" horiz-adv-x="600" 
d="M167 374c-65 0 -110 45 -110 139c0 79 43 133 105 133c75 0 110 -54 110 -140c0 -82 -38 -132 -105 -132zM462 643h-115l-207 -640h115zM167 432c17 0 28 30 28 74c0 48 -12 80 -34 80c-12 0 -29 -28 -29 -73c0 -51 19 -81 35 -81zM437 2c-65 0 -110 45 -110 139
c0 79 43 133 105 133c75 0 110 -54 110 -140c0 -82 -38 -132 -105 -132zM437 60c17 0 28 30 28 74c0 48 -12 80 -34 80c-12 0 -29 -28 -29 -73c0 -51 19 -81 35 -81z" />
    <glyph glyph-name="plus" unicode="+" 
d="M581 305v-133h-203v-203h-133v203h-203v133h203v203h133v-203h203z" />
    <glyph glyph-name="plusminus" unicode="&#xb1;" 
d="M366 456h167v-109h-167v-168h-109v168h-167v109h167v166h109v-166zM90 18v109h443v-109h-443z" />
    <glyph glyph-name="ampersand" unicode="&#x26;" horiz-adv-x="700" 
d="M647 356h-165c0 -77 2 -101 -25 -145c-18 19 -47 57 -87 126c200 121 151 329 -46 329c-118 0 -229 -125 -130 -277c-44 -29 -141 -84 -141 -221c0 -225 284 -216 382 -143c113 -85 192 21 192 67c-40 -23 -73 1 -101 38c17 23 27 47 33 74c30 -2 55 1 79 1zM310 451
c-32 34 -47 131 27 131c68 0 62 -82 -27 -131zM253 276c24 -46 64 -116 108 -166c-96 -79 -279 19 -108 166z" />
    <glyph glyph-name="at" unicode="@" horiz-adv-x="833" 
d="M585 289v-126c3 -53 96 -110 96 71c0 120 -90 269 -266 269s-263 -149 -263 -269c0 -133 106 -257 268 -254v-90c-216 -2 -361 165 -361 344c0 159 120 359 356 359s359 -200 359 -359c0 -283 -241 -218 -288 -153l-16 29c-20 -34 -64 -42 -87 -42
c-61 0 -126 34 -126 108c0 75 60 119 133 119c40 0 60 -20 63 -23v23c0 28 -23 36 -61 36s-70 -16 -95 -30l-27 74c26 17 81 47 141 47c77 0 174 -29 174 -133zM453 174v23c-3 4 -8 20 -38 20c-25 0 -36 -15 -36 -35c0 -18 14 -29 34 -29c17 0 37 10 40 21z" />
    <glyph glyph-name="copyright" unicode="&#xa9;" horiz-adv-x="833" 
d="M49 324c0 159 130 359 366 359s369 -200 369 -359c0 -198 -129 -354 -369 -354c-213 0 -366 176 -366 354zM142 324c0 -132 114 -264 273 -264c180 0 276 117 276 264c0 120 -100 269 -276 269s-273 -149 -273 -269zM582 337h-104c-1 33 -12 74 -44 74
c-42 0 -64 -45 -64 -90c0 -47 28 -85 75 -85c37 0 62 15 86 40l62 -71c-34 -37 -98 -74 -175 -74c-104 0 -195 63 -195 192c0 125 84 181 175 181c49 0 77 -27 89 -41l11 35h84v-161z" />
    <glyph glyph-name="registered" unicode="&#xae;" horiz-adv-x="833" 
d="M49 324c0 159 130 359 366 359s369 -200 369 -359c0 -198 -129 -354 -369 -354c-213 0 -366 176 -366 354zM142 324c0 -132 114 -264 273 -264c180 0 276 117 276 264c0 120 -100 269 -276 269s-273 -149 -273 -269zM249 503h174c123 0 146 -49 146 -110
c0 -41 -33 -69 -77 -75c36 -10 70 -39 70 -77c0 -23 3 -37 13 -37c8 0 11 7 11 17v18h37v-30c0 -44 -19 -85 -78 -85c-69 0 -99 38 -99 99c0 49 -10 61 -58 61v-83h33v-69h-172v69h31v231h-31v71zM388 433v-90h24c34 0 52 15 52 43c0 32 -18 47 -50 47h-26z" />
    <glyph glyph-name="ring" unicode="&#x2da;" horiz-adv-x="833" 
 />
    <glyph glyph-name="CR" horiz-adv-x="280" 
 />
    <glyph glyph-name=".null" horiz-adv-x="0" 
 />
  </font>
</defs>
</svg>
